<?xml version="1.0" encoding="UTF-8"?>
<!DOCTYPE svg PUBLIC "-//W3C//DTD SVG 1.1//EN" "http://www.w3.org/Graphics/SVG/1.1/DTD/svg11.dtd">
<svg xmlns="http://www.w3.org/2000/svg" version="1.1" width="16px" height="16px" style="shape-rendering:geometricPrecision; text-rendering:geometricPrecision; image-rendering:optimizeQuality; fill-rule:evenodd; clip-rule:evenodd" xmlns:xlink="http://www.w3.org/1999/xlink">
<g><path style="opacity:0.192" fill="#00acef" d="M 14.5,-0.5 C 14.8333,-0.5 15.1667,-0.5 15.5,-0.5C 15.5,-0.166667 15.5,0.166667 15.5,0.5C 15.1667,0.166667 14.8333,-0.166667 14.5,-0.5 Z"/></g>
<g><path style="opacity:1" fill="#00aff0" d="M 14.5,0.5 C 13.8333,1.16667 13.8333,1.16667 14.5,0.5 Z"/></g>
<g><path style="opacity:1" fill="#00aff0" d="M 13.5,1.5 C 12.8333,2.16667 12.8333,2.16667 13.5,1.5 Z"/></g>
<g><path style="opacity:1" fill="#00aff0" d="M 12.5,2.5 C 11.8333,3.16667 11.8333,3.16667 12.5,2.5 Z"/></g>
<g><path style="opacity:1" fill="#3571c2" d="M 15.5,2.5 C 15.5,6.5 15.5,10.5 15.5,14.5C 14.8333,14.5 14.5,14.8333 14.5,15.5C 9.83333,15.5 5.16667,15.5 0.5,15.5C 0.5,14.8333 0.166667,14.5 -0.5,14.5C -0.5,13.8333 -0.5,13.1667 -0.5,12.5C 1.17496,10.998 3.0083,9.6647 5,8.5C 5.83726,10.0074 7.00392,10.5074 8.5,10C 10.5017,7.14016 12.835,4.64016 15.5,2.5 Z"/></g>
<g><path style="opacity:0.969" fill="#00aff0" d="M 9.5,5.5 C 8.62795,9.08936 6.96128,9.42269 4.5,6.5C 2.81439,7.85689 1.14772,9.19022 -0.5,10.5C -0.5,9.5 -0.5,8.5 -0.5,7.5C 1.39245,6.29834 3.22578,4.96501 5,3.5C 6.19229,5.65017 7.69229,6.31683 9.5,5.5 Z"/></g>
<g><path style="opacity:1" fill="#00aff0" d="M 11.5,3.5 C 10.8333,4.16667 10.8333,4.16667 11.5,3.5 Z"/></g>
<g><path style="opacity:1" fill="#00aff0" d="M 10.5,4.5 C 9.83333,5.16667 9.83333,5.16667 10.5,4.5 Z"/></g>
</svg>
