<?xml version="1.0" encoding="UTF-8"?>
<!DOCTYPE svg PUBLIC "-//W3C//DTD SVG 1.1//EN" "http://www.w3.org/Graphics/SVG/1.1/DTD/svg11.dtd">
<svg xmlns="http://www.w3.org/2000/svg" version="1.1" width="32px" height="32px" style="shape-rendering:geometricPrecision; text-rendering:geometricPrecision; image-rendering:optimizeQuality; fill-rule:evenodd; clip-rule:evenodd" xmlns:xlink="http://www.w3.org/1999/xlink">
<g><path style="opacity:1" fill="#fbfdfe" d="M -0.5,-0.5 C 9.5,-0.5 19.5,-0.5 29.5,-0.5C 25.3605,3.46801 21.0272,7.30134 16.5,11C 13.9067,10.4535 11.7401,8.95351 10,6.5C 6.62354,9.38263 3.12354,12.0493 -0.5,14.5C -0.5,9.5 -0.5,4.5 -0.5,-0.5 Z"/></g>
<g><path style="opacity:1" fill="#edf4fa" d="M 31.5,0.5 C 31.5,1.83333 31.5,3.16667 31.5,4.5C 30.5084,4.32842 29.8417,4.66175 29.5,5.5C 25.0036,10.1644 20.6703,14.9977 16.5,20C 13.9067,19.4535 11.7401,17.9535 10,15.5C 6.62354,18.3826 3.12354,21.0493 -0.5,23.5C -0.5,21.8333 -0.5,20.1667 -0.5,18.5C 2.87353,16.0571 6.37353,13.7237 10,11.5C 12.0191,13.243 14.1857,14.4097 16.5,15C 21.3687,9.96349 26.3687,5.13015 31.5,0.5 Z"/></g>
<g><path style="opacity:1" fill="#38b8f1" d="M 29.5,-0.5 C 30.1667,-0.5 30.8333,-0.5 31.5,-0.5C 31.5,-0.166667 31.5,0.166667 31.5,0.5C 26.3687,5.13015 21.3687,9.96349 16.5,15C 14.1857,14.4097 12.0191,13.243 10,11.5C 6.37353,13.7237 2.87353,16.0571 -0.5,18.5C -0.5,17.1667 -0.5,15.8333 -0.5,14.5C 3.12354,12.0493 6.62354,9.38263 10,6.5C 11.7401,8.95351 13.9067,10.4535 16.5,11C 21.0272,7.30134 25.3605,3.46801 29.5,-0.5 Z"/></g>
<g><path style="opacity:1" fill="#3e74c2" d="M 29.5,5.5 C 30.4912,12.3134 30.8245,19.3134 30.5,26.5C 20.2648,27.8177 9.93149,27.8177 -0.5,26.5C -0.5,25.5 -0.5,24.5 -0.5,23.5C 3.12354,21.0493 6.62354,18.3826 10,15.5C 11.7401,17.9535 13.9067,19.4535 16.5,20C 20.6703,14.9977 25.0036,10.1644 29.5,5.5 Z"/></g>
<g><path style="opacity:1" fill="#799ed5" d="M 29.5,5.5 C 29.8417,4.66175 30.5084,4.32842 31.5,4.5C 31.5,11.8333 31.5,19.1667 31.5,26.5C 31.1667,26.5 30.8333,26.5 30.5,26.5C 30.8245,19.3134 30.4912,12.3134 29.5,5.5 Z"/></g>
<g><path style="opacity:1" fill="#fafbfd" d="M -0.5,26.5 C 9.93149,27.8177 20.2648,27.8177 30.5,26.5C 30.8333,26.5 31.1667,26.5 31.5,26.5C 31.5,28.1667 31.5,29.8333 31.5,31.5C 20.8333,31.5 10.1667,31.5 -0.5,31.5C -0.5,29.8333 -0.5,28.1667 -0.5,26.5 Z"/></g>
</svg>
